HIERARCHY
ROOT Hips
{
  OFFSET -25.4992 47.4658 0.522821
  CHANNELS 6 Xposition Yposition Zposition Zrotation Xrotation Yrotation
  JOINT Bip01_Pelvis
  {
    OFFSET 0 0 0
    CHANNELS 6 Xposition Yposition Zposition Zrotation Xrotation Yrotation
    JOINT Bip01_Spine
    {
      OFFSET 7.92815 1.03427 -0.957866
      CHANNELS 6 Xposition Yposition Zposition Zrotation Xrotation Yrotation
      JOINT Bip01_Spine1
      {
        OFFSET 14.2482 -0.00839019 0.000894789
        CHANNELS 6 Xposition Yposition Zposition Zrotation Xrotation Yrotation
        JOINT Bip01_Neck
        {
          OFFSET 16.1384 -3.98645 0.000135839
          CHANNELS 6 Xposition Yposition Zposition Zrotation Xrotation Yrotation
          JOINT Bip01_Neck1
          {
            OFFSET 9.69266 -0.00491233 0
            CHANNELS 6 Xposition Yposition Zposition Zrotation Xrotation Yrotation
            JOINT Bip01_Head
            {
              OFFSET 6.2355 0 0
              CHANNELS 6 Xposition Yposition Zposition Zrotation Xrotation Yrotation
              JOINT BN_Mouth_01
              {
                OFFSET 4.58056 2.14338 0
                CHANNELS 6 Xposition Yposition Zposition Zrotation Xrotation Yrotation
                End Site
                {
                  OFFSET 0 0 0
                }
              }
            }
          }
          JOINT Bip01_L_Clavicle
          {
            OFFSET -0.933029 -3.98291 -6.88005
            CHANNELS 6 Xposition Yposition Zposition Zrotation Xrotation Yrotation
            JOINT Bip01_L_UpperArm
            {
              OFFSET 15.6802 0 0
              CHANNELS 6 Xposition Yposition Zposition Zrotation Xrotation Yrotation
              JOINT Bip01_L_Forearm
              {
                OFFSET 15.3149 0 0
                CHANNELS 6 Xposition Yposition Zposition Zrotation Xrotation Yrotation
                JOINT Bip01_L_Hand
                {
                  OFFSET 16.178 0 0
                  CHANNELS 6 Xposition Yposition Zposition Zrotation Xrotation Yrotation
                  JOINT Bip01_L_Finger0
                  {
                    OFFSET 12.9992 0 0
                    CHANNELS 6 Xposition Yposition Zposition Zrotation Xrotation Yrotation
                    End Site
                    {
                      OFFSET 0 0 0
                    }
                  }
                }
              }
              JOINT BN__UpperArm_L_01
              {
                OFFSET 4.92586 2.56729 1.95639
                CHANNELS 6 Xposition Yposition Zposition Zrotation Xrotation Yrotation
                End Site
                {
                  OFFSET 0 0 0
                }
              }
            }
          }
          JOINT Bip01_R_Clavicle
          {
            OFFSET -1.90751 -3.34722 7.0168
            CHANNELS 6 Xposition Yposition Zposition Zrotation Xrotation Yrotation
            JOINT Bip01_R_UpperArm
            {
              OFFSET 15.6801 0 0
              CHANNELS 6 Xposition Yposition Zposition Zrotation Xrotation Yrotation
              JOINT Bip01_R_Forearm
              {
                OFFSET 15.3149 0 0
                CHANNELS 6 Xposition Yposition Zposition Zrotation Xrotation Yrotation
                JOINT Bip01_R_Hand
                {
                  OFFSET 16.1779 0 0
                  CHANNELS 6 Xposition Yposition Zposition Zrotation Xrotation Yrotation
                  JOINT Bip01_R_Finger0
                  {
                    OFFSET 12.9991 0 0
                    CHANNELS 6 Xposition Yposition Zposition Zrotation Xrotation Yrotation
                    End Site
                    {
                      OFFSET 0 0 0
                    }
                  }
                }
              }
              JOINT BN__UpperArm_R_01
              {
                OFFSET 4.92584 2.56728 -1.95638
                CHANNELS 6 Xposition Yposition Zposition Zrotation Xrotation Yrotation
                End Site
                {
                  OFFSET 0 0 0
                }
              }
            }
          }
        }
      }
      JOINT Bip01_L_Thigh
      {
        OFFSET -8.91231 -1.85462 5.82833
        CHANNELS 6 Xposition Yposition Zposition Zrotation Xrotation Yrotation
        JOINT Bip01_L_Calf
        {
          OFFSET 15.7566 0 0
          CHANNELS 6 Xposition Yposition Zposition Zrotation Xrotation Yrotation
          JOINT Bip01_L_HorseLink
          {
            OFFSET 16.2363 0 0
            CHANNELS 6 Xposition Yposition Zposition Zrotation Xrotation Yrotation
            JOINT Bip01_L_Foot
            {
              OFFSET 13.9816 0 0
              CHANNELS 6 Xposition Yposition Zposition Zrotation Xrotation Yrotation
              JOINT Bip01_L_Toe0
              {
                OFFSET 7.68594 5.03696 0
                CHANNELS 6 Xposition Yposition Zposition Zrotation Xrotation Yrotation
                End Site
                {
                  OFFSET 0 0 0
                }
              }
            }
          }
        }
      }
      JOINT Bip01_R_Thigh
      {
        OFFSET -6.80264 -1.57702 -6.62463
        CHANNELS 6 Xposition Yposition Zposition Zrotation Xrotation Yrotation
        JOINT Bip01_R_Calf
        {
          OFFSET 15.7566 0 0
          CHANNELS 6 Xposition Yposition Zposition Zrotation Xrotation Yrotation
          JOINT Bip01_R_HorseLink
          {
            OFFSET 16.2363 0 0
            CHANNELS 6 Xposition Yposition Zposition Zrotation Xrotation Yrotation
            JOINT Bip01_R_Foot
            {
              OFFSET 13.9816 0 0
              CHANNELS 6 Xposition Yposition Zposition Zrotation Xrotation Yrotation
              JOINT Bip01_R_Toe0
              {
                OFFSET 7.68597 5.03696 0
                CHANNELS 6 Xposition Yposition Zposition Zrotation Xrotation Yrotation
                End Site
                {
                  OFFSET 0 0 0
                }
              }
            }
          }
        }
      }
    }
    JOINT BN_Tail_01
    {
      OFFSET -7.9584 -2.82211 0
      CHANNELS 6 Xposition Yposition Zposition Zrotation Xrotation Yrotation
      JOINT BN_Tail_02
      {
        OFFSET 10.9082 0 0.00113176
        CHANNELS 6 Xposition Yposition Zposition Zrotation Xrotation Yrotation
        End Site
        {
          OFFSET 0 0 0
        }
      }
    }
  }
}
MOTION
Frames:	4
Frame Time:	0.0333333
-15.7622 37.1117 -4.95322e-006 -44.5935 -81.8833 44.4945 -6.95296e-007 5.58987e-008 8.75052e-007 -88.2835 -12.7523 -84.0697 7.98306 -0.723024 0.795409 -2.35142 2.54903 -4.61631 14.2465 -0.00872272 -9.68918e-007 -5.53382 -1.55383 -13.2278 16.1379 -3.98815 0.00100059 -34.1977 -7.67054 -1.6735 9.68814 -0.00490384 0.00159691 -11.6849 -16.4693 5.79488 6.23292 -6.40561e-006 -5.72396e-006 -23.6297 10.1602 -3.13942 4.57829 2.1423 -1.5689e-005 -83.3317 -0.00683593 179.999 -3.24489 -1.54936 -7.15044 -144.864 -23.6704 -86.8205 15.6733 1.89794e-005 -3.13376e-005 -55.7858 -15.9729 50.8393 15.3074 7.28931e-006 -8.34811e-007 -50.6489 -0.000279849 -9.31588e-005 16.1693 -4.87089e-006 -3.89827e-005 -178.951 -74.6853 -172.245 12.9911 3.7073e-005 -6.59038e-006 -3.79193 1.23833 17.6451 6.09691 3.12002 -5.23594 -126.023 -79.3773 -131.369 -2.84153 -3.40888 6.65847 -146.806 12.8164 92.9843 15.6727 2.10847e-005 -1.24264e-005 -26.8971 48.9495 -73.4997 15.3076 -2.88132e-005 1.52141e-005 -73.8653 6.14399e-005 6.52915e-005 16.1691 5.4935e-006 -3.46757e-005 170.133 80.4303 -178.078 12.9907 -2.74406e-005 -6.30287e-006 -2.09462 0.191904 18.4965 5.03648 3.8909 -1.75203 53.9716 -79.3762 48.6252 -7.53806 0.641223 6.12378 -103.567 17.1061 178.768 15.7544 4.76111e-006 7.58659e-005 -65.3582 0.000289052 -7.49742e-007 16.2327 -7.32676e-006 8.56513e-007 122.977 -0.000178478 -0.000242202 13.9784 4.35049e-006 6.05706e-005 -61.137 -3.11439 -5.58246 7.68294 5.03502 4.23825e-005 89.9962 -0.000210771 -0.000138056 -8.55323 0.0788803 -6.45526 -93.7426 1.79151 160.438 15.7525 2.3912e-005 -2.38313e-005 -84.0453 -9.12753e-005 -3.55686e-005 16.2315 -2.55777e-005 8.21282e-006 76.737 -3.9742e-005 9.22057e-005 13.9763 2.11227e-005 -1.83128e-005 13.7352 12.192 10.4351 7.68225 5.03442 0.000103206 89.9961 4.88778e-005 -0.00124608 -7.95833 -2.82208 1.32707e-007 -51.2831 3.12346 -177.548 10.908 -3.69597e-006 0.0011897 -7.62016 -18.229 20.2301 
-15.7049 37.1286 -5.0201e-006 -43.9644 -81.9209 45.0472 -3.84282e-007 -4.04395e-008 6.17617e-007 -88.2797 -12.7801 -84.0583 7.98191 -0.728216 0.797699 -2.38235 2.48668 -4.59604 14.2466 -0.00873591 3.12466e-005 -5.57207 -1.39797 -13.2279 16.1379 -3.98817 0.0010946 -34.2243 -7.97872 -1.68651 9.68823 -0.00489479 0.00163082 -11.6338 -16.9883 5.76942 6.23284 -1.21815e-005 3.81656e-005 -24.6725 10.4484 -3.14893 4.57863 2.14247 2.81521e-005 -83.2662 0.00605773 179.977 -3.24569 -1.51222 -7.15819 -144.765 -23.9632 -86.6327 15.6734 9.97048e-005 4.82966e-005 -56.0725 -16.3275 50.8943 15.3075 2.54421e-005 -7.36926e-005 -49.9148 -0.000250296 0.000117283 16.1691 5.20757e-005 -3.3069e-005 -179.697 -74.8635 -172.846 12.991 0.000131621 3.23003e-005 -3.85208 1.15678 18.0298 6.09695 3.11998 -5.23607 -126.022 -79.3773 -131.369 -2.83938 -3.44415 6.64099 -146.817 12.5619 93.1463 15.6728 -2.86794e-005 7.15733e-005 -26.6775 48.9074 -73.6099 15.3066 0.000174745 0.000103584 -73.5995 0.00034446 -0.000328312 16.1681 -0.000224756 8.67579e-005 169.382 80.349 -177.415 12.9899 0.000114691 0.000159004 -2.07833 0.219904 18.4961 5.03619 3.89077 -1.75192 53.9722 -79.3767 48.6249 -7.53918 0.634972 6.11977 -103.231 17.1133 178.727 15.7543 3.7403e-005 3.1048e-005 -64.964 1.75683e-005 -0.0001783 16.2326 -4.32603e-005 4.69054e-005 122.925 -0.00015052 5.1786e-005 13.9773 1.04621e-005 -1.36154e-005 -61.209 -3.02413 -5.59371 7.68232 5.03464 -3.03676e-006 89.9962 -8.20135e-005 0.000153716 -8.55101 0.0867401 -6.46014 -93.423 1.71076 160.496 15.7525 1.69788e-005 2.41782e-005 -83.7255 5.21972e-005 -0.000188294 16.2315 -1.45798e-005 4.97246e-005 76.6834 -0.000161401 -0.000105808 13.9762 1.83934e-005 2.49106e-005 13.7312 12.256 10.389 7.6819 5.03429 -1.08697e-005 89.9961 -4.47647e-005 0.00018237 -7.95767 -2.82185 -1.11195e-005 -51.6799 3.14017 -177.313 10.9071 3.87643e-007 0.00122335 -8.59108 -18.5029 21.532 
-15.7244 37.1894 -4.99658e-006 -43.8199 -81.9634 45.2183 -5.47977e-007 -4.30354e-009 1.90967e-006 -88.2837 -12.7523 -84.0697 7.98314 -0.723044 0.795415 -2.35135 2.40095 -4.5702 14.248 -0.00878194 -1.48407e-006 -5.65831 -1.26142 -13.2189 16.1413 -3.98908 0.00109401 -34.2359 -8.2683 -1.69953 9.69175 -0.00490226 0.0015347 -11.5825 -17.5079 5.74533 6.2355 -2.72523e-006 -3.94443e-007 -25.6505 10.7124 -3.10663 4.58058 2.14338 -3.58338e-008 -83.2007 0.0184021 179.955 -3.24753 -1.4756 -7.16855 -144.697 -24.2016 -86.461 15.6801 2.92767e-007 -1.73293e-006 -56.0649 -16.6268 50.9888 15.3149 -1.37508e-006 3.35601e-006 -49.6221 5.99721e-005 -2.29754e-005 16.1779 4.54699e-006 -4.53633e-007 179.825 -75.0772 -173.29 12.9992 -8.21519e-007 3.54749e-006 -3.81964 1.16413 17.843 6.09987 3.12148 -5.23853 -126.021 -79.3773 -131.367 -2.83832 -3.48062 6.62599 -146.852 12.3114 93.3018 15.6802 -3.52934e-006 -2.31762e-006 -26.5954 49.0869 -73.6656 15.3149 -2.68801e-007 1.5287e-006 -73.3676 9.72865e-006 -1.36266e-005 16.1779 2.54783e-006 -5.79819e-007 168.931 80.2976 -176.851 12.9992 -5.26254e-007 -1.90667e-006 -2.06371 0.248638 18.4967 5.03887 3.89274 -1.75287 53.9723 -79.3762 48.6258 -7.54322 0.627046 6.12004 -103.292 17.0988 178.816 15.7566 7.15424e-007 -3.30451e-007 -64.7485 7.87658e-006 3.71295e-006 16.2363 -2.62732e-006 -2.62236e-006 122.684 -6.26246e-006 2.33757e-005 13.9816 6.7468e-006 2.80754e-006 -61.1765 -2.9816 -5.57086 7.68591 5.03697 -9.26057e-008 89.9963 3.82103e-006 -5.90665e-006 -8.54952 0.0972189 -6.46215 -93.4545 1.69613 160.632 15.7566 -2.15527e-006 2.42015e-006 -83.5143 -1.29277e-005 4.64159e-006 16.2363 2.97462e-006 -4.98629e-007 76.5408 -1.09311e-006 1.71151e-005 13.9816 1.19597e-006 1.85365e-006 13.6768 12.2639 10.3544 7.68596 5.03695 2.15542e-006 89.9962 -1.83187e-006 -4.2714e-006 -7.9584 -2.8221 1.14392e-006 -52.1958 3.14958 -177.073 10.9082 -1.9039e-007 0.00119074 -9.55652 -18.7977 22.8312 
-15.8411 37.3137 -4.98176e-006 -44.2968 -82.0165 44.9001 1.2973e-006 4.06883e-008 1.62529e-006 -88.2992 -12.6635 -84.1139 7.98333 -0.710594 0.789871 -2.26149 2.29074 -4.53937 14.2437 -0.00870582 9.24274e-005 -5.79057 -1.12806 -13.1996 16.1362 -3.98777 0.00122681 -34.2289 -8.53699 -1.70928 9.68837 -0.00485609 0.00159322 -11.5318 -18.0256 5.71966 6.23328 -1.32777e-005 8.67642e-005 -26.5445 10.9498 -3.03047 4.57888 2.14259 5.17292e-005 -83.5576 0.00637817 179.975 -3.24897 -1.44199 -7.17124 -144.647 -24.4284 -86.2987 15.6744 0.000308452 3.25618e-006 -55.8583 -16.8839 51.0291 15.3079 -0.000188441 -0.000139447 -49.8426 -0.000591605 0.000137095 16.1701 -0.000256047 -5.51889e-005 179.536 -75.2362 -173.819 12.9913 7.13227e-005 -0.000183037 -3.78712 1.17221 17.6559 6.0971 3.12012 -5.23627 -126.024 -79.3766 -131.37 -2.8378 -3.50784 6.60818 -146.896 12.081 93.4414 15.6738 -7.24516e-005 3.77791e-005 -26.662 49.5649 -73.652 15.3088 3.68089e-005 -0.000111822 -73.1644 -0.000230408 0.000702155 16.1691 -6.49377e-005 -0.00020001 168.849 80.2892 -176.422 12.9911 -0.000143845 8.07892e-005 -2.03045 0.231597 18.098 5.03689 3.89119 -1.75212 53.9706 -79.3748 48.6239 -7.54423 0.61602 6.12043 -103.838 17.0887 179.048 15.751 5.64115e-005 0.000236533 -64.7159 0.000738819 -0.000459023 16.2304 -7.35591e-005 0.000130579 122.168 -0.000809143 -0.000380464 13.9766 1.70575e-005 9.41642e-005 -61.0029 -2.98589 -5.50312 7.68245 5.03474 9.87458e-005 89.9961 -0.00070258 -8.88115e-005 -8.54246 0.111193 -6.45922 -93.9588 1.78517 160.865 15.7499 5.84624e-005 0.000100717 -83.4443 0.000321751 -0.000467104 16.2295 -5.8227e-005 0.000134515 76.1942 -0.000394807 -0.000413179 13.9745 5.22755e-005 0.000101302 13.6125 12.2127 10.3283 7.68192 5.03431 4.91811e-006 89.9958 -0.000563832 0.000783397 -7.95694 -2.8216 -2.72655e-005 -52.8497 3.15326 -176.781 10.9052 -4.18406e-005 0.00139082 -10.0923 -18.8541 23.6244 
